<svg width="77" height="70" viewBox="0 0 77 70" fill="none" xmlns="http://www.w3.org/2000/svg">
<rect x="0.5" y="0.5" width="76" height="69" rx="9.5" fill="#080808" stroke="url(#paint0_linear_51_300)"/>
<path d="M44.9533 36.5335C46.2533 36.5335 47.3973 35.8228 47.9867 34.7481L54.192 23.4988C54.3381 23.2361 54.413 22.9397 54.4094 22.6392C54.4058 22.3386 54.3238 22.0441 54.1714 21.785C54.0191 21.5258 53.8017 21.311 53.5409 21.1616C53.28 21.0123 52.9846 20.9336 52.684 20.9335H27.0307L25.4013 17.4668H19.7333V20.9335H23.2L29.44 34.0895L27.1 38.3188C25.8347 40.6415 27.4987 43.4668 30.1333 43.4668H50.9333V40.0001H30.1333L32.04 36.5335H44.9533ZM28.6773 24.4001H49.7373L44.9533 33.0668H32.7853L28.6773 24.4001ZM30.1333 45.2001C28.2267 45.2001 26.684 46.7601 26.684 48.6668C26.684 50.5735 28.2267 52.1335 30.1333 52.1335C32.04 52.1335 33.6 50.5735 33.6 48.6668C33.6 46.7601 32.04 45.2001 30.1333 45.2001ZM47.4667 45.2001C45.56 45.2001 44.0173 46.7601 44.0173 48.6668C44.0173 50.5735 45.56 52.1335 47.4667 52.1335C49.3733 52.1335 50.9333 50.5735 50.9333 48.6668C50.9333 46.7601 49.3733 45.2001 47.4667 45.2001Z" fill="#F79421"/>
<defs>
<linearGradient id="paint0_linear_51_300" x1="38.5" y1="0" x2="38.5" y2="70" gradientUnits="userSpaceOnUse">
<stop stop-color="#F79421"/>
<stop offset="1" stop-color="#F79421" stop-opacity="0"/>
</linearGradient>
</defs>
</svg>
