<svg width="172" height="36" viewBox="0 0 172 36" fill="none" xmlns="http://www.w3.org/2000/svg">
<g clip-path="url(#clip0_50_272)">
<path d="M4.70847 34.3998C3.19734 33.5909 1.97654 32.3389 1.21388 30.8158C0.361843 29.0399 -0.0528453 27.0897 0.00377997 25.1247V11.9711C-0.0529194 10.0025 0.361729 8.04862 1.21388 6.26882C1.97174 4.73956 3.19348 3.48266 4.70847 2.67367C6.40688 1.81288 8.29725 1.3896 10.2048 1.44296C12.3159 1.44296 14.094 1.85693 15.539 2.68486C17.0281 3.56448 18.2034 4.88098 18.9017 6.45156C19.7009 8.13228 20.1784 10.2643 20.3342 12.8475H14.0952C14.0395 11.8197 13.8312 10.8056 13.477 9.83787C13.2255 9.13756 12.772 8.52555 12.1726 8.07759C11.5947 7.6844 10.906 7.48206 10.2048 7.49953C9.46434 7.48079 8.73246 7.65987 8.08619 8.01792C7.48362 8.37883 7.00735 8.91379 6.72153 9.5507C6.3862 10.3134 6.22406 11.1396 6.24654 11.9711V25.1247C6.22005 25.9565 6.38236 26.7836 6.72153 27.5451C7.01473 28.1666 7.49024 28.6864 8.08619 29.0369C8.73246 29.3949 9.46434 29.574 10.2048 29.5553C10.91 29.5764 11.6035 29.3739 12.1839 28.9772C12.7762 28.5255 13.2282 27.9181 13.4883 27.2244C13.8456 26.267 14.0503 25.2605 14.0952 24.2409H20.3342C20.1633 26.8216 19.6783 28.9536 18.8791 30.6368C18.1806 32.2038 17.0102 33.5192 15.5277 34.4035C14.0902 35.2314 12.3159 35.6466 10.2048 35.6491C8.29545 35.6985 6.40454 35.2687 4.70847 34.3998V34.3998Z" fill="#F79421"/>
<path d="M28.4165 34.6426C27.1301 34.0155 26.0751 33.0045 25.4007 31.7524C24.676 30.336 24.3197 28.7632 24.364 27.1764V19.3446C24.3182 17.7731 24.6748 16.2157 25.4007 14.8171C26.0787 13.5759 27.1336 12.5766 28.4165 11.9604C29.9048 11.2712 31.5352 10.9354 33.1778 10.9795C34.8217 10.9348 36.4534 11.2707 37.9428 11.9604C39.2266 12.5754 40.2818 13.5749 40.9586 14.8171C41.6845 16.2157 42.0411 17.7731 41.9953 19.3446V27.2472C42.0471 28.8167 41.6983 30.3738 40.9812 31.7747C40.3014 33.0174 39.2473 34.0197 37.9654 34.6426C36.4707 35.3416 34.8303 35.6815 33.1778 35.6347C31.5338 35.6798 29.9024 35.3399 28.4165 34.6426V34.6426ZM35.2512 29.2387C35.7834 28.6162 36.0533 27.815 36.0051 27.0011V19.5423C36.0537 18.7396 35.7831 17.9499 35.2512 17.3419C34.9784 17.0797 34.6526 16.8777 34.2953 16.7492C33.9379 16.6206 33.557 16.5684 33.1778 16.596C32.7978 16.5739 32.4174 16.6328 32.0623 16.7685C31.7072 16.9043 31.3857 17.1138 31.1195 17.3829C30.5923 17.9877 30.3221 18.7709 30.3655 19.5684V27.0272C30.3113 27.8369 30.57 28.6367 31.0893 29.2648C31.6564 29.7756 32.3958 30.0587 33.1627 30.0587C33.9296 30.0587 34.669 29.7756 35.2361 29.2648L35.2512 29.2387Z" fill="#F79421"/>
<path d="M47.0016 11.3713H53.0785V35.2881H47.0016V11.3713ZM58.7407 19.576C58.7684 19.1782 58.7161 18.7788 58.5867 18.4011C58.4573 18.0234 58.2533 17.6749 57.9867 17.3757C57.7041 17.1084 57.3687 16.9019 57.0015 16.769C56.6343 16.6361 56.2433 16.5799 55.853 16.6037C55.4758 16.5799 55.0979 16.6364 54.7447 16.7696C54.3916 16.9028 54.0715 17.1095 53.806 17.3757C53.2819 18.0012 53.0225 18.803 53.0822 19.6133L52.5922 15.5408C53.0742 14.2245 53.8924 13.0541 54.9671 12.1433C55.9493 11.3647 57.177 10.9528 58.4353 10.9798C60.4459 10.9798 62.0103 11.6709 63.1287 13.0533C64.2471 14.4357 64.8025 16.3787 64.7949 18.8824V35.2918H58.7407V19.576Z" fill="#F79421"/>
<path d="M68.4026 11.3714H79.7685V16.6709H68.4026V11.3714ZM72.1724 33.8C71.1671 32.7334 70.6645 31.1559 70.6645 29.0674V4.41602H76.7413V27.8218C76.7083 28.2825 76.8419 28.7399 77.1183 29.1122C77.2477 29.2596 77.4093 29.3758 77.5909 29.4521C77.7725 29.5283 77.9693 29.5626 78.1663 29.5522H79.7722V35.4037H76.9072C74.7635 35.4037 73.1864 34.8691 72.1761 33.8H72.1724Z" fill="#F79421"/>
<path d="M84.311 11.3709H90.599V35.2876H84.311V11.3709ZM95.9974 17.1552C95.607 17.0739 95.2088 17.0352 94.8099 17.0396C94.2323 17.0073 93.6546 17.1012 93.1177 17.3145C92.5809 17.5278 92.0981 17.8554 91.7036 18.274C90.9697 19.0895 90.6015 20.2195 90.599 21.664L90.1014 15.5404C90.6901 14.2247 91.5962 13.0722 92.7403 12.1839C93.7532 11.3976 95.0038 10.9708 96.2914 10.9718C96.7576 10.9677 97.2204 11.0499 97.6561 11.2142C98.0633 11.371 98.4294 11.6171 98.7267 11.934L96.887 17.5281C96.6121 17.3456 96.3033 17.2188 95.9785 17.1552H95.9974Z" fill="#F79421"/>
<path d="M104.92 34.6426C103.634 34.0154 102.579 33.0044 101.905 31.7523C101.18 30.3359 100.824 28.7631 100.868 27.1763V19.3445C100.822 17.773 101.179 16.2156 101.905 14.817C102.583 13.5758 103.638 12.5765 104.92 11.9603C106.425 11.3127 108.048 10.9785 109.689 10.9785C111.33 10.9785 112.953 11.3127 114.458 11.9603C115.742 12.5753 116.797 13.5749 117.474 14.817C118.2 16.2156 118.556 17.773 118.51 19.3445V27.2471C118.555 28.8185 118.198 30.3756 117.474 31.7746C116.794 33.0173 115.74 34.0196 114.458 34.6426C112.955 35.2974 111.331 35.6356 109.689 35.6356C108.047 35.6356 106.423 35.2974 104.92 34.6426V34.6426ZM111.755 29.2386C112.28 28.6129 112.543 27.8124 112.49 27.001V19.5422C112.543 18.7421 112.28 17.953 111.755 17.3418C111.189 16.8391 110.455 16.5611 109.695 16.5611C108.934 16.5611 108.201 16.8391 107.635 17.3418C107.114 17.9494 106.851 18.7323 106.9 19.5273V26.9861C106.845 27.7958 107.104 28.5956 107.623 29.2237C108.19 29.7345 108.93 30.0176 109.697 30.0176C110.464 30.0176 111.203 29.7345 111.77 29.2237L111.755 29.2386Z" fill="#F79421"/>
<path d="M129.56 27.7055C129.545 27.9398 129.578 28.1747 129.656 28.3963C129.734 28.6179 129.857 28.8218 130.016 28.9959C130.183 29.1569 130.383 29.2816 130.601 29.3619C130.82 29.4421 131.053 29.4763 131.286 29.4621H132.191V35.2874H129.515C127.617 35.2874 126.142 34.7342 125.089 33.6278C124.036 32.5214 123.508 30.9626 123.505 28.9512V1.78613H129.56V27.7055Z" fill="#F79421"/>
<path d="M168.811 0H139.957C139.111 0 138.3 0.332409 137.702 0.924102C137.104 1.51579 136.768 2.3183 136.768 3.15508V32.8487C136.768 33.6844 137.103 34.486 137.701 35.077C138.298 35.668 139.108 36 139.953 36H168.811C169.229 36.0005 169.643 35.9195 170.03 35.7615C170.417 35.6036 170.768 35.3719 171.064 35.0796C171.36 34.7873 171.595 34.4402 171.756 34.0581C171.917 33.6759 171.999 33.2662 172 32.8524V32.8524V3.15508C172 2.3183 171.664 1.51579 171.066 0.924102C170.468 0.332409 169.657 0 168.811 0V0ZM168.03 17.9981C167.473 19.0308 166.624 19.8808 165.588 20.4446C164.469 21.0378 163.215 21.3358 161.946 21.3099H157.905V30.9541H154.659V18.2741H162.055C162.706 18.2898 163.347 18.1202 163.902 17.7856C164.437 17.4443 164.86 16.9573 165.12 16.3833C165.422 15.7377 165.572 15.0323 165.557 14.3209C165.572 13.6048 165.422 12.8947 165.12 12.2437C164.853 11.6631 164.418 11.1739 163.869 10.8381C163.321 10.5022 162.685 10.3346 162.04 10.3566L152.718 10.3118V23.2678C152.756 24.6967 152.468 26.1158 151.873 27.4186C151.347 28.5224 150.485 29.4354 149.408 30.0292C148.212 30.662 146.873 30.9805 145.517 30.9541C144.343 30.9703 143.181 30.7149 142.124 30.2082C141.119 29.72 140.254 28.9889 139.61 28.0825L142.268 26.1506C142.565 26.676 143.014 27.1018 143.557 27.3739C144.166 27.6697 144.839 27.8131 145.517 27.7916C146.065 27.8227 146.613 27.7316 147.121 27.525C147.629 27.3185 148.083 27.0017 148.45 26.5982C149.148 25.8038 149.498 24.685 149.494 23.2417V9.44287C149.879 9.5767 150.289 9.62609 150.695 9.58761C151.101 9.54914 151.494 9.42372 151.846 9.22006C152.198 9.01639 152.501 8.73936 152.735 8.40819C152.968 8.07701 153.125 7.69962 153.196 7.30219H161.953C163.223 7.2765 164.478 7.57719 165.595 8.17487C166.634 8.74323 167.483 9.59852 168.038 10.6363C168.629 11.7748 168.921 13.0416 168.89 14.3209C168.919 15.5986 168.624 16.863 168.03 17.9981Z" fill="white"/>
<path d="M150.339 8.59639C151.467 8.59639 152.382 7.69141 152.382 6.57505C152.382 5.4587 151.467 4.55371 150.339 4.55371C149.21 4.55371 148.296 5.4587 148.296 6.57505C148.296 7.69141 149.21 8.59639 150.339 8.59639Z" fill="#F79421"/>
</g>
<defs>
<clipPath id="clip0_50_272">
<rect width="172" height="36" fill="white"/>
</clipPath>
</defs>
</svg>
